<svg width="51" height="50" viewBox="0 0 51 50" fill="none" xmlns="http://www.w3.org/2000/svg">
<path fill-rule="evenodd" clip-rule="evenodd" d="M28.56 4.125C27.6772 3.47589 26.6035 3.125 25.5 3.125C24.3965 3.125 23.3228 3.47589 22.44 4.125L4.80672 17.09C4.06732 17.6352 3.4916 18.3657 3.14021 19.2048C2.78882 20.0438 2.67476 20.9602 2.81007 21.8575C3.17982 24.3325 3.82497 29.1575 3.82497 32.5C3.82497 35.275 3.37872 39.095 3.00897 41.755C2.59842 44.7475 4.94697 47.5 8.10387 47.5H42.9012C46.053 47.5 48.4092 44.75 47.9935 41.755C47.6238 39.095 47.1775 35.275 47.1775 32.5C47.1775 29.1575 47.8227 24.33 48.1924 21.8575C48.3277 20.9602 48.2137 20.0438 47.8623 19.2048C47.5109 18.3657 46.9352 17.6352 46.1958 17.09L28.56 4.125ZM7.86672 21.09L25.5 8.125L43.1332 21.09L43.1358 21.0925L43.1409 21.1C43.1438 21.1106 43.1438 21.1219 43.1409 21.1325C42.7788 23.5875 42.075 28.75 42.075 32.5C42.075 35.645 42.5671 39.7575 42.9369 42.425V42.4575C42.9299 42.4751 42.9174 42.49 42.9012 42.5H35.7V30C35.7 27.3478 34.6253 24.8043 32.7125 22.9289C30.7996 21.0536 28.2052 20 25.5 20C22.7948 20 20.2003 21.0536 18.2875 22.9289C16.3746 24.8043 15.3 27.3478 15.3 30V42.5H8.09877C8.09622 42.5 8.08857 42.495 8.08347 42.4875C8.07553 42.4788 8.06946 42.4686 8.06562 42.4575C8.06323 42.4476 8.06323 42.4374 8.06562 42.4275C8.43282 39.7575 8.92497 35.645 8.92497 32.5C8.92497 28.75 8.22372 23.5875 7.85652 21.1325L7.85907 21.1L7.86672 21.09ZM20.4 42.5H30.6V30C30.6 28.6739 30.0626 27.4021 29.1062 26.4645C28.1498 25.5268 26.8526 25 25.5 25C24.1474 25 22.8502 25.5268 21.8937 26.4645C20.9373 27.4021 20.4 28.6739 20.4 30V42.5Z" fill="#008040"/>
</svg>
