<svg width="28" height="28" viewBox="0 0 28 28" fill="none" xmlns="http://www.w3.org/2000/svg">
<path d="M14 19.8333V12.8333" stroke="#006633" stroke-width="1.664" stroke-linecap="round"/>
<path d="M13.9999 8.16667C14.6443 8.16667 15.1666 8.689 15.1666 9.33333C15.1666 9.97767 14.6443 10.5 13.9999 10.5C13.3556 10.5 12.8333 9.97767 12.8333 9.33333C12.8333 8.689 13.3556 8.16667 13.9999 8.16667Z" fill="#006633"/>
<path d="M25.6666 14C25.6666 19.4997 25.6666 22.2496 23.958 23.9581C22.2495 25.6667 19.4996 25.6667 13.9999 25.6667C8.50019 25.6667 5.75034 25.6667 4.0418 23.9581C2.33325 22.2496 2.33325 19.4997 2.33325 14C2.33325 8.50028 2.33325 5.75042 4.0418 4.04188C5.75034 2.33333 8.50019 2.33333 13.9999 2.33333C19.4996 2.33333 22.2495 2.33333 23.958 4.04188C25.0941 5.17791 25.4748 6.77431 25.6023 9.33333" stroke="#006633" stroke-width="1.664" stroke-linecap="round"/>
</svg>
