<svg width="64" height="64" viewBox="0 0 64 64" fill="none" xmlns="http://www.w3.org/2000/svg">
<g clip-path="url(#clip0_193_36)">
<path fill-rule="evenodd" clip-rule="evenodd" d="M38.4 32C38.4 35.536 35.536 38.4 32 38.4C28.464 38.4 25.6 35.536 25.6 32C25.6 28.464 28.464 25.6 32 25.6C35.536 25.6 38.4 28.464 38.4 32ZM32 44.8C24.9408 44.8 19.2 39.0592 19.2 32C19.2 24.9408 24.9408 19.2 32 19.2C39.0592 19.2 44.8 24.9408 44.8 32C44.8 39.0592 39.0592 44.8 32 44.8ZM32 12.8C21.3952 12.8 12.8 21.3952 12.8 32C12.8 42.6048 21.3952 51.2 32 51.2C42.6048 51.2 51.2 42.6048 51.2 32C51.2 21.3952 42.6048 12.8 32 12.8ZM32 57.6C17.8848 57.6 6.4 46.1152 6.4 32C6.4 17.8848 17.8848 6.4 32 6.4C46.1152 6.4 57.6 17.8848 57.6 32C57.6 46.1152 46.1152 57.6 32 57.6ZM32 0C14.3264 0 0 14.3264 0 32C0 49.6736 14.3264 64 32 64C49.6736 64 64 49.6736 64 32C64 14.3264 49.6736 0 32 0Z" fill="#F4970B"/>
</g>
<defs>
<clipPath id="clip0_193_36">
<rect width="64" height="64" fill="white"/>
</clipPath>
</defs>
</svg>
